<?xml version="1.0" standalone="no"?>
<!DOCTYPE svg PUBLIC "-//W3C//DTD SVG 20010904//EN"
 "http://www.w3.org/TR/2001/REC-SVG-20010904/DTD/svg10.dtd">
<svg version="1.0" xmlns="http://www.w3.org/2000/svg"
 width="700.000000pt" height="440.000000pt" viewBox="0 0 700.000000 440.000000"
 preserveAspectRatio="xMidYMid meet">

<g transform="translate(0.000000,440.000000) scale(0.100000,-0.100000)"
fill="#000000" stroke="none">
<path d="M925 2680 c-36 -8 -225 -115 -242 -138 -10 -11 -13 -75 -13 -237 0
-258 -13 -227 135 -316 85 -51 94 -54 158 -54 l67 0 0 -36 c0 -45 8 -52 138
-125 137 -76 157 -76 294 1 55 32 109 66 119 76 17 17 19 38 19 242 0 261 14
231 -145 321 -96 55 -102 57 -157 53 l-58 -5 0 37 c0 46 -7 52 -128 121 -102
57 -141 70 -187 60z m189 -81 c73 -42 106 -66 106 -79 0 -12 -34 -38 -107 -81
-146 -86 -161 -86 -311 1 -70 40 -112 70 -112 80 0 11 40 39 108 77 59 34 114
64 122 67 34 13 94 -7 194 -65z m351 -212 c60 -34 111 -70 113 -79 4 -23 -199
-139 -255 -145 -37 -5 -54 1 -153 57 -62 35 -114 69 -117 77 -8 20 8 34 117
97 131 76 150 76 295 -7z"/>
<path d="M2700 2471 l-225 -47 -3 -262 c-1 -144 1 -262 5 -262 5 1 114 22 243
48 l235 48 3 262 c2 245 1 262 -15 261 -10 -1 -119 -23 -243 -48z m240 -91 c0
-24 -5 -40 -15 -44 -12 -4 -15 -24 -15 -91 0 -69 3 -85 15 -85 23 0 21 -77 -2
-84 -16 -5 -411 -86 -420 -86 -2 0 -3 20 -3 45 0 25 5 45 10 45 6 0 10 35 10
85 0 50 -4 85 -10 85 -5 0 -10 20 -10 45 0 38 3 45 23 50 63 14 113 25 120 25
4 0 7 -20 7 -45 0 -25 -4 -45 -10 -45 -6 0 -10 -35 -10 -85 0 -78 2 -85 20
-85 18 0 20 7 20 89 l0 89 31 6 c60 12 59 13 59 -79 0 -47 2 -85 4 -85 30 0
36 15 36 96 0 49 -4 84 -10 84 -5 0 -10 20 -10 44 l0 44 73 14 c39 8 75 13 80
11 4 -2 7 -21 7 -43z"/>
<path d="M2253 2473 l-173 -36 0 -264 c0 -247 1 -264 18 -259 9 3 88 19 175
37 l157 33 0 263 c0 145 -1 263 -2 262 -2 -1 -81 -17 -175 -36z m157 -103 c0
-27 -5 -43 -15 -46 -12 -5 -15 -27 -15 -108 -1 -99 -1 -102 -33 -137 -26 -29
-43 -38 -90 -48 -56 -10 -60 -10 -93 16 -27 20 -34 32 -32 52 3 22 10 27 52
35 36 6 50 5 56 -4 12 -19 40 -4 40 21 0 19 -4 20 -40 14 -57 -10 -110 25
-110 73 0 17 -5 32 -11 32 -6 0 -9 17 -7 42 l3 42 55 12 c87 21 84 23 76 -56
-3 -38 -4 -70 -2 -70 2 0 11 3 20 6 18 7 22 54 5 54 -6 0 -9 17 -7 42 3 43 3
43 53 55 89 20 95 19 95 -27z"/>
<path d="M3173 2473 l-173 -36 0 -263 0 -263 28 5 c15 3 97 20 182 38 l155 32
3 262 c2 207 0 262 -10 261 -7 -1 -91 -17 -185 -36z m167 -103 c0 -27 -5 -43
-15 -46 -12 -5 -15 -25 -15 -90 0 -68 3 -84 15 -84 11 0 15 -11 15 -43 l0 -44
-64 -11 c-35 -7 -68 -12 -75 -12 -14 0 -15 76 -1 85 6 3 10 21 10 38 l-1 32
-31 -34 c-18 -21 -26 -37 -20 -39 7 -2 12 -23 12 -47 l0 -44 -57 -11 c-32 -6
-66 -14 -75 -16 -15 -5 -18 2 -18 39 0 31 5 47 15 51 20 7 22 177 3 173 -9 -1
-14 13 -16 40 -3 46 -11 41 88 63 25 5 48 10 53 10 4 0 7 -20 7 -45 0 -25 -4
-45 -10 -45 -5 0 -10 -15 -10 -32 l0 -33 33 34 c21 22 28 35 20 38 -8 3 -13
22 -13 47 l0 43 53 10 c95 19 97 18 97 -27z"/>
<path d="M3850 2472 l-175 -37 -3 -264 -2 -263 22 6 c13 3 96 20 186 38 l162
32 0 263 c0 145 -3 263 -7 262 -5 0 -87 -17 -183 -37z m160 -107 c0 -25 -4
-45 -10 -45 -6 0 -10 -35 -10 -85 0 -70 3 -85 16 -85 12 0 14 -9 12 -42 -3
-43 -3 -43 -53 -55 -91 -21 -95 -19 -95 32 0 25 5 45 10 45 6 0 10 35 10 85 0
84 -3 91 -34 79 -13 -5 -16 -25 -16 -114 0 -122 -14 -153 -73 -165 -17 -4 -40
-9 -49 -11 -15 -5 -18 2 -18 39 0 31 5 47 15 51 12 4 15 24 15 91 0 53 -4 85
-11 85 -6 0 -9 17 -7 42 l3 42 125 27 c175 38 170 39 170 -16z"/>
<path d="M4253 2472 l-173 -36 0 -263 0 -262 28 5 c15 3 97 20 182 37 l155 32
3 263 c2 206 0 262 -10 261 -7 0 -91 -17 -185 -37z m167 -107 c0 -25 -4 -45
-10 -45 -6 0 -10 -35 -10 -85 0 -50 4 -85 10 -85 6 0 10 -19 10 -43 l0 -44
-64 -11 c-35 -7 -68 -12 -75 -12 -14 0 -15 72 0 87 6 6 9 23 7 38 l-3 27 -24
-32 c-17 -23 -20 -35 -12 -43 6 -6 11 -26 11 -44 0 -36 -13 -47 -75 -57 -22
-4 -48 -9 -57 -12 -15 -5 -18 2 -18 40 0 25 5 46 10 46 6 0 10 37 10 91 0 61
-3 88 -11 84 -7 -5 -9 9 -7 41 l3 48 60 13 c33 7 66 12 73 13 15 0 17 -71 1
-87 -6 -6 -9 -23 -7 -39 l3 -29 24 34 c17 24 21 35 12 41 -7 4 -11 23 -9 46 3
38 4 39 53 51 91 21 95 19 95 -32z"/>
<path d="M5733 2472 l-173 -37 0 -263 c0 -207 3 -263 13 -260 6 3 90 20 185
39 l172 33 0 263 c0 204 -3 263 -12 262 -7 -1 -91 -17 -185 -37z m167 -117 l0
-54 -37 -7 c-25 -5 -38 -3 -41 5 -2 6 -8 11 -13 11 -5 0 -9 -41 -9 -91 0 -57
4 -88 10 -84 6 4 10 -11 10 -39 0 -44 -1 -46 -37 -55 -21 -5 -55 -13 -75 -17
l-38 -6 0 46 c0 25 5 46 10 46 6 0 10 35 10 85 0 50 -4 85 -10 85 -5 0 -10 -7
-10 -15 0 -8 -8 -15 -17 -15 -10 0 -28 -3 -41 -6 -22 -6 -23 -5 -20 52 l3 58
130 27 c185 38 175 40 175 -26z"/>
<path d="M6140 2472 l-175 -37 -3 -264 -2 -263 22 6 c13 3 96 20 186 38 l162
32 0 263 c0 145 -3 263 -7 262 -5 0 -87 -17 -183 -37z m170 -102 c0 -27 -5
-43 -15 -46 -22 -9 -22 -174 1 -174 12 0 14 -9 12 -42 -3 -43 -3 -43 -53 -55
-91 -21 -95 -19 -95 32 0 25 5 45 10 45 6 0 10 15 10 32 l0 33 -32 -34 c-22
-22 -29 -35 -20 -38 7 -3 12 -23 12 -48 l0 -44 -57 -11 c-32 -6 -66 -14 -75
-16 -15 -5 -18 2 -18 39 0 31 5 47 15 51 12 4 15 24 15 86 0 64 -3 80 -15 80
-11 0 -15 12 -15 45 0 38 3 45 23 50 63 14 113 25 120 25 4 0 7 -20 7 -45 0
-25 -4 -45 -10 -45 -5 0 -10 -15 -10 -32 l0 -33 33 34 c21 22 28 35 20 38 -8
3 -13 22 -13 47 l0 43 48 10 c26 6 59 11 75 12 25 1 27 -2 27 -39z"/>
<path d="M1875 2471 l-130 -27 -3 -262 c-1 -146 2 -262 6 -262 9 0 235 45 280
55 l22 5 0 260 0 260 -22 -1 c-13 -1 -81 -13 -153 -28z m116 -102 c20 -14 29
-29 29 -49 0 -26 -3 -29 -52 -35 -33 -5 -53 -4 -56 3 -1 5 -12 8 -22 5 -18 -5
-20 -14 -20 -89 0 -69 3 -84 15 -84 9 0 18 7 21 15 6 14 62 35 97 35 12 0 17
-8 17 -28 0 -46 -62 -97 -134 -111 -57 -10 -61 -10 -93 15 l-33 25 0 112 1
112 33 37 c49 56 145 74 197 37z"/>
<path d="M4640 2474 c-63 -13 -125 -26 -137 -29 l-23 -5 0 -260 c0 -221 2
-260 15 -260 8 0 79 14 158 30 80 17 147 30 151 30 3 0 6 117 6 260 l0 260
-27 -1 c-16 -1 -80 -12 -143 -25z m128 -121 l-3 -57 -44 -9 c-32 -6 -46 -5
-51 3 -10 17 -30 3 -30 -20 0 -15 5 -17 34 -10 28 6 41 3 70 -17 33 -22 36
-28 36 -72 0 -39 -6 -54 -33 -85 -29 -34 -42 -40 -117 -57 -122 -27 -120 -27
-120 26 0 25 5 45 10 45 6 0 10 35 10 85 0 50 -4 85 -10 85 -5 0 -10 20 -10
44 l0 43 123 26 c67 14 126 25 130 26 4 1 7 -25 5 -56z"/>
<path d="M4652 2171 c-8 -4 -12 -18 -10 -29 2 -15 7 -19 16 -13 8 4 12 18 10
29 -2 15 -7 19 -16 13z"/>
<path d="M5035 2480 c-44 -10 -106 -23 -137 -30 l-58 -11 0 -260 c0 -210 3
-259 13 -259 8 0 81 14 162 30 81 17 150 30 152 30 1 0 3 117 3 260 l0 260
-27 -1 c-16 0 -64 -9 -108 -19z m103 -127 l-3 -57 -44 -9 c-32 -6 -46 -5 -51
4 -12 18 -40 3 -40 -21 0 -19 5 -21 38 -18 35 3 37 1 40 -29 3 -28 0 -33 -25
-38 -50 -11 -53 -14 -53 -41 0 -20 4 -25 16 -20 9 3 18 6 20 6 2 0 4 6 4 14 0
13 41 26 81 26 16 0 19 -8 19 -55 0 -30 -2 -55 -5 -55 -3 0 -57 -11 -121 -25
-64 -14 -122 -25 -130 -25 -10 0 -14 13 -14 45 0 25 5 45 10 45 6 0 10 35 10
85 0 50 -4 85 -10 85 -5 0 -10 20 -10 44 l0 43 123 26 c67 14 128 25 135 26
10 1 12 -14 10 -56z"/>
<path d="M5360 2474 c-63 -13 -125 -26 -137 -29 l-23 -5 0 -260 c0 -221 2
-260 15 -260 8 0 79 14 158 30 80 17 147 30 151 30 3 0 6 117 6 260 l0 260
-27 -1 c-16 -1 -80 -12 -143 -25z m106 -100 c30 -23 34 -32 34 -73 0 -59 -46
-119 -100 -130 -26 -5 -36 -13 -38 -29 -2 -12 2 -22 8 -22 7 0 10 -16 8 -42
-3 -43 -3 -43 -53 -55 -91 -21 -95 -19 -95 32 0 25 5 45 10 45 6 0 10 35 10
85 0 50 -4 85 -10 85 -5 0 -10 20 -10 44 l0 43 98 21 c53 11 98 20 100 21 2 1
19 -11 38 -25z"/>
<path d="M5367 2293 c-4 -3 -7 -17 -7 -29 0 -17 4 -22 15 -18 8 4 15 17 15 30
0 23 -10 31 -23 17z"/>
</g>
</svg>
