<?xml version="1.0" standalone="no"?>
<!DOCTYPE svg PUBLIC "-//W3C//DTD SVG 20010904//EN"
 "http://www.w3.org/TR/2001/REC-SVG-20010904/DTD/svg10.dtd">
<svg version="1.0" xmlns="http://www.w3.org/2000/svg"
 width="585.000000pt" height="700.000000pt" viewBox="0 0 585.000000 700.000000"
 preserveAspectRatio="xMidYMid meet">

<g transform="translate(0.000000,700.000000) scale(0.100000,-0.100000)"
fill="#000000" stroke="none">
<path d="M3880 6979 c-52 -11 -125 -38 -190 -70 -90 -45 -116 -64 -195 -143
-102 -102 -153 -182 -192 -301 -22 -67 -27 -102 -30 -210 -1 -71 -3 -131 -3
-131 0 -1 -18 2 -40 7 -151 34 -406 40 -585 14 -782 -114 -1260 -565 -1400
-1320 -49 -268 -57 -608 -20 -860 8 -55 15 -103 15 -106 0 -7 77 -14 290 -29
404 -27 865 62 1213 236 237 119 478 304 637 490 41 48 87 101 102 118 l28 31
-17 -42 c-18 -48 -12 -73 16 -73 26 0 28 4 96 205 32 94 65 181 75 195 15 21
85 178 103 233 17 47 86 -11 206 -173 210 -283 340 -615 381 -975 13 -118 13
-339 -1 -464 -6 -55 -9 -108 -7 -118 5 -25 106 128 157 238 42 89 51 98 26 29
-25 -70 -9 -58 33 26 53 105 97 232 124 357 19 87 22 133 22 307 0 184 -2 218
-26 330 -49 226 -158 500 -274 686 -24 40 -44 76 -44 80 0 5 26 21 58 37 290
139 465 474 409 783 -28 156 -93 279 -207 395 -195 197 -483 280 -760 218z
m190 -747 c0 -4 -15 -53 -34 -109 l-34 -101 44 -43 c40 -39 102 -142 118 -196
6 -19 0 -18 -71 18 -43 22 -94 42 -113 45 l-35 6 -50 -152 c-28 -84 -56 -155
-63 -157 -7 -3 7 -17 33 -34 25 -16 45 -33 45 -39 0 -6 9 -6 24 1 16 8 30 8
42 1 16 -9 16 -10 -5 -22 -12 -6 -28 -9 -36 -7 -9 4 -13 -7 -13 -43 0 -64 -25
-104 -77 -124 -53 -21 -60 -20 -106 6 -48 26 -64 51 -73 105 -12 71 32 131
103 140 27 4 41 11 41 20 0 8 23 79 50 157 28 78 50 145 50 149 0 4 -16 7 -37
7 -27 0 -50 10 -89 40 -67 50 -159 100 -252 135 -40 16 -69 32 -64 37 18 18
129 50 191 55 84 7 168 -9 250 -47 35 -17 68 -27 71 -23 4 4 18 40 30 78 13
39 27 78 32 88 9 17 28 24 28 9z m518 -417 c-7 -7 -100 -62 -205 -124 -173
-100 -233 -126 -233 -103 0 11 434 251 443 245 5 -3 3 -11 -5 -18z m-459 -254
c18 -12 -70 -64 -93 -55 -25 10 -19 18 27 41 49 25 48 25 66 14z m-616 -783
c-328 -435 -757 -718 -1282 -848 -207 -51 -462 -81 -661 -78 -63 1 -90 3 -60
5 457 27 949 157 1290 341 261 140 520 350 679 550 19 23 36 42 39 42 2 0 0
-6 -5 -12z"/>
<path d="M3761 5418 c-17 -38 -6 -62 32 -66 19 -2 30 4 43 22 15 24 15 28 0
51 -24 36 -58 33 -75 -7z m53 -23 c-4 -8 -10 -12 -15 -9 -11 6 -2 24 11 24 5
0 7 -7 4 -15z"/>
<path d="M3692 4966 c-46 -93 -56 -134 -17 -71 26 42 68 145 62 151 -2 2 -22
-34 -45 -80z"/>
<path d="M3450 4245 c-74 -21 -185 -77 -240 -121 -53 -43 -53 -43 70 19 100
50 225 87 294 87 76 0 166 -29 236 -77 22 -15 22 -14 -5 15 -16 18 -54 45 -84
59 -67 33 -187 41 -271 18z"/>
<path d="M2047 3776 c-55 -20 -111 -62 -141 -105 -14 -20 -26 -40 -26 -43 0
-4 19 2 43 12 76 33 163 43 242 27 85 -18 96 -14 24 7 -58 18 -143 20 -201 7
-47 -11 -48 -1 -3 33 47 36 97 56 140 56 19 0 35 5 35 10 0 14 -68 12 -113 -4z"/>
<path d="M3520 3779 c92 -28 124 -44 156 -76 20 -19 34 -36 32 -38 -2 -2 -28
3 -58 11 -73 19 -144 17 -210 -6 -30 -11 -44 -17 -30 -14 113 26 247 10 329
-37 18 -11 36 -18 38 -15 3 3 -6 25 -21 50 -44 76 -121 123 -213 131 -52 4
-55 4 -23 -6z"/>
<path d="M4550 3030 c0 -7 -7 -10 -15 -6 -8 3 -15 1 -15 -4 0 -6 -7 -10 -15
-10 -8 0 -15 -4 -15 -10 0 -5 5 -10 10 -10 6 0 10 -5 10 -11 0 -8 -4 -8 -15 1
-8 6 -19 9 -25 5 -15 -9 -12 -25 3 -19 8 3 20 -2 27 -11 15 -18 6 -32 -12 -18
-16 12 -26 11 -66 -7 -36 -17 -37 -33 -3 -38 15 -2 21 0 17 7 -14 22 15 10 42
-16 30 -31 82 -58 82 -43 0 5 10 14 21 21 17 9 23 8 30 -2 6 -11 17 -6 44 21
39 38 43 72 10 78 -28 6 -55 31 -48 48 3 8 -1 14 -11 14 -9 0 -13 -6 -10 -14
6 -17 -26 -30 -40 -16 -7 7 -5 10 7 10 21 0 22 13 2 30 -12 10 -15 10 -15 0z
m-10 -30 c0 -5 -2 -10 -4 -10 -3 0 -8 5 -11 10 -3 6 -1 10 4 10 6 0 11 -4 11
-10z m15 -41 c12 -19 -5 -23 -22 -6 -16 16 -16 17 -1 17 9 0 20 -5 23 -11z
m55 -15 c0 -8 -4 -14 -10 -14 -5 0 -10 2 -10 4 0 2 -3 12 -6 20 -5 12 -2 15
10 10 9 -3 16 -12 16 -20z m60 -15 c0 -10 -31 -20 -41 -13 -17 10 -9 22 16 20
14 0 25 -4 25 -7z m-140 -19 c0 -5 -4 -10 -10 -10 -5 0 -10 5 -10 10 0 6 5 10
10 10 6 0 10 -4 10 -10z m50 -17 c0 -13 -3 -13 -15 -3 -8 7 -12 16 -9 21 8 13
24 1 24 -18z"/>
<path d="M3950 2913 c-56 -32 -53 -30 -45 -43 4 -7 17 -2 36 14 46 39 68 42
96 13 27 -26 26 -53 -3 -82 -9 -8 -11 -15 -5 -15 6 0 23 19 38 41 l27 42 -34
28 c-41 35 -52 35 -110 2z"/>
<path d="M4248 2858 c19 -19 14 -33 -6 -15 -20 18 -43 24 -26 7 6 -6 9 -33 6
-61 -2 -27 -1 -49 4 -48 24 4 36 -2 30 -16 -3 -10 1 -15 13 -15 11 0 26 -3 34
-6 10 -3 24 8 41 33 37 54 34 69 -18 82 -43 11 -71 31 -44 31 18 0 -12 20 -31
20 -12 0 -12 -3 -3 -12z m16 -54 c9 -3 16 -13 16 -21 0 -10 -6 -13 -16 -9 -9
3 -20 6 -25 6 -4 0 -6 7 -3 15 7 17 7 17 28 9z m74 -31 c-8 -7 -22 -11 -31 -7
-24 9 -21 27 3 19 12 -4 20 -2 20 5 0 6 5 8 11 4 8 -4 7 -11 -3 -21z"/>
<path d="M3900 2822 c0 -30 80 -57 95 -32 4 6 -6 10 -22 10 -16 0 -39 7 -51
16 -12 8 -22 11 -22 6z"/>
<path d="M4995 2819 c4 -6 1 -10 -6 -9 -25 4 -59 -12 -59 -26 0 -8 -4 -14 -10
-14 -5 0 -10 -5 -10 -12 0 -6 3 -8 7 -5 3 4 12 2 20 -4 10 -9 17 -8 29 1 12
11 18 10 32 -5 16 -17 16 -17 -7 -12 -14 4 -31 1 -37 -4 -9 -7 -19 -7 -30 -1
-13 7 -29 4 -57 -11 -37 -19 -38 -21 -21 -34 24 -17 45 -17 38 1 -5 13 -1 13
26 3 17 -6 26 -13 20 -15 -6 -2 3 -14 22 -26 47 -32 66 -37 64 -19 0 8 7 20
17 27 14 9 20 8 28 -4 8 -12 15 -8 44 24 19 22 35 44 35 50 0 6 -18 19 -41 28
-28 12 -39 22 -37 34 2 9 -3 19 -11 22 -10 3 -12 0 -8 -11 6 -17 -29 -32 -39
-16 -3 5 2 9 10 9 14 0 14 3 4 20 -7 11 -16 20 -21 20 -4 0 -5 -5 -2 -11z
m-10 -29 c3 -5 2 -10 -4 -10 -5 0 -13 5 -16 10 -3 6 -2 10 4 10 5 0 13 -4 16
-10z m-25 -20 c0 -5 -2 -10 -4 -10 -3 0 -8 5 -11 10 -3 6 -1 10 4 10 6 0 11
-4 11 -10z m96 -34 c3 -8 16 -13 30 -11 28 3 41 -10 19 -19 -17 -6 -85 23 -85
36 0 14 30 9 36 -6z m-81 -36 c3 -5 2 -10 -4 -10 -5 0 -13 5 -16 10 -3 6 -2
10 4 10 5 0 13 -4 16 -10z m53 -19 c3 -8 -1 -12 -9 -9 -7 2 -15 10 -17 17 -3
8 1 12 9 9 7 -2 15 -10 17 -17z"/>
<path d="M1505 2780 c-3 -5 -16 -10 -28 -10 -15 0 -18 -3 -10 -11 16 -16 57
-7 61 14 4 18 -13 24 -23 7z"/>
<path d="M1543 2763 c-3 -10 -13 -26 -22 -36 -15 -17 -14 -18 14 -11 17 4 32
10 35 14 3 3 13 9 23 13 27 10 20 25 -9 19 -19 -3 -25 -1 -20 7 4 6 2 11 -4
11 -6 0 -13 -8 -17 -17z"/>
<path d="M3785 2739 l6 -44 -48 -23 c-68 -32 -123 -64 -123 -73 0 -18 31 -17
43 2 13 23 81 59 109 59 13 0 19 -8 20 -27 1 -16 3 -41 5 -58 1 -16 3 -43 4
-59 1 -16 9 -38 19 -48 17 -18 17 -18 13 5 -3 13 3 39 11 58 9 19 13 25 10 14
-10 -31 -14 -109 -6 -121 11 -17 68 -44 94 -44 20 0 26 10 45 78 19 70 20 79
6 95 -21 22 -28 22 -41 -5 -10 -20 -11 -17 -6 19 9 64 -16 109 -89 163 -33 25
-65 47 -70 49 -5 2 -6 -16 -2 -40z"/>
<path d="M968 2750 c-2 -6 -13 -12 -26 -13 -28 -2 -29 -14 -2 -22 23 -7 50 10
50 31 0 16 -17 19 -22 4z"/>
<path d="M4788 2753 c7 -3 16 -2 19 1 4 3 -2 6 -13 5 -11 0 -14 -3 -6 -6z"/>
<path d="M1342 2645 c-1 -108 2 -114 39 -94 29 15 54 19 151 23 86 4 88 3 121
-28 45 -40 71 -82 63 -101 -3 -8 -1 -15 4 -15 5 0 12 -16 16 -36 5 -29 2 -40
-17 -60 -13 -13 -17 -24 -10 -24 7 0 19 -7 27 -15 18 -18 38 -20 28 -3 -11 17
-12 228 -2 234 4 3 8 13 8 23 0 10 8 21 18 23 19 5 32 59 32 126 l0 25 -26
-27 c-15 -14 -32 -26 -39 -26 -6 0 -27 -8 -46 -17 -19 -9 -55 -18 -81 -19 -26
-2 -52 -5 -57 -9 -13 -7 -118 23 -127 36 -3 5 -13 7 -22 5 -10 -3 -21 -2 -27
2 -15 10 -35 49 -35 67 0 8 -4 15 -9 15 -5 0 -9 -47 -9 -105z"/>
<path d="M1000 2720 c0 -11 -4 -20 -10 -20 -5 0 -10 -4 -10 -10 0 -14 34 -12
49 3 6 6 17 12 23 12 6 0 13 6 16 14 3 10 -1 12 -17 8 -11 -3 -21 -1 -21 4 0
5 -7 9 -15 9 -8 0 -15 -9 -15 -20z"/>
<path d="M3056 2731 c-56 -8 -70 -23 -118 -123 -18 -37 -36 -68 -39 -68 -4 0
-14 19 -23 43 -9 23 -32 63 -51 90 l-35 47 -61 0 -61 0 32 -42 c18 -24 62 -88
99 -143 l66 -100 -3 -115 c-1 -66 2 -121 8 -130 7 -11 10 -5 10 26 0 105 90
302 207 456 24 31 43 59 43 62 0 7 -3 6 -74 -3z m-171 -241 c3 -5 13 -6 23 -3
12 4 10 0 -6 -15 -14 -12 -19 -23 -12 -27 5 -3 10 -1 10 6 0 9 3 10 10 3 11
-11 3 -44 -10 -44 -13 0 -48 62 -43 77 6 15 19 17 28 3z"/>
<path d="M798 2680 c-2 -22 -1 -40 3 -40 7 0 42 -68 44 -85 1 -5 7 -23 14 -40
23 -54 -21 -97 -139 -133 -51 -16 -172 -9 -204 11 -14 9 -37 17 -50 17 -20 0
-30 9 -45 42 l-19 41 -3 -74 c-2 -41 -3 -113 -1 -161 4 -85 5 -87 43 -127 29
-30 48 -41 70 -41 16 0 44 -7 61 -16 16 -9 51 -15 77 -15 71 1 101 -8 101 -29
0 -16 -4 -17 -30 -10 -41 12 -39 -6 5 -31 19 -12 35 -26 35 -33 0 -6 19 -30
41 -54 30 -30 49 -42 71 -42 16 0 41 -6 56 -14 34 -17 210 -27 187 -10 -13 10
-13 13 0 24 10 9 27 9 62 2 66 -13 123 -5 154 24 16 15 29 20 35 14 10 -10 10
223 0 265 -3 13 -2 27 4 30 5 3 10 14 10 23 0 10 14 23 32 31 l33 15 -32 8
c-18 5 -35 13 -38 18 -3 6 -19 10 -34 10 -25 0 -32 7 -51 53 -21 48 -22 62
-17 190 3 75 4 137 2 137 -2 0 -16 -11 -31 -25 -14 -13 -30 -22 -35 -20 -4 3
-10 1 -14 -5 -8 -14 -81 -32 -145 -36 -51 -3 -113 10 -134 28 -6 4 -22 8 -37
8 -21 0 -31 8 -43 32 -9 17 -16 37 -16 45 0 32 -18 9 -22 -27z m347 -257 c33
-32 56 -70 59 -98 1 -5 8 -22 16 -38 11 -22 11 -32 1 -51 -14 -26 -78 -64
-131 -78 -55 -14 -158 -19 -165 -8 -3 5 -17 10 -30 10 -13 0 -27 5 -30 10 -3
6 -20 10 -36 10 -26 0 -33 6 -49 43 -29 63 -26 105 11 150 53 65 98 81 228 84
l89 2 37 -36z m139 -374 c36 -28 33 -39 -9 -28 -19 6 -40 7 -45 4 -6 -3 -10 5
-10 19 0 33 26 35 64 5z m13 -90 c57 -10 75 -23 58 -41 -3 -3 -35 0 -70 7 -36
6 -67 10 -70 7 -3 -3 -5 1 -5 10 0 31 4 31 87 17z"/>
<path d="M906 2295 c-10 -8 -24 -12 -30 -8 -6 3 -3 -3 7 -13 14 -15 21 -16 35
-8 18 12 29 44 15 44 -4 0 -17 -7 -27 -15z"/>
<path d="M950 2278 c0 -6 -7 -20 -17 -30 -15 -17 -15 -18 3 -18 11 0 31 8 44
17 14 10 27 16 30 15 2 -2 6 2 9 9 2 8 -3 10 -18 6 -11 -3 -24 -1 -27 4 -8 13
-24 11 -24 -3z"/>
<path d="M4620 2697 c0 -10 -5 -14 -15 -11 -20 8 -19 -6 3 -22 9 -7 12 -14 5
-14 -6 0 -15 5 -18 10 -3 6 -13 10 -21 10 -8 0 -14 -4 -14 -10 0 -5 7 -10 15
-10 8 0 15 -4 15 -10 0 -5 -13 -7 -30 -3 -24 4 -30 2 -30 -12 0 -10 -8 -27
-17 -38 -17 -19 -17 -20 -1 -14 10 3 20 2 23 -3 4 -6 14 -10 24 -10 19 0 64
-44 74 -72 4 -10 11 -18 17 -18 6 0 8 5 5 11 -4 5 3 19 16 30 20 18 24 18 32
4 8 -14 11 -13 31 7 13 13 30 37 39 54 18 36 10 51 -34 59 -29 6 -61 35 -39
35 13 0 13 2 0 10 -23 15 -32 12 -26 -8 5 -13 0 -18 -19 -20 -14 -1 -25 3 -25
9 0 6 7 9 15 5 21 -8 19 8 -5 29 -18 16 -20 16 -20 2z m10 -77 c8 -5 12 -12 8
-15 -10 -10 -49 5 -43 16 8 11 16 11 35 -1z m59 -4 c7 -8 8 -16 4 -19 -11 -7
-45 18 -36 26 10 11 19 8 32 -7z m-114 -9 c13 -10 15 -16 6 -21 -6 -4 -18 -3
-25 3 -7 6 -16 8 -20 4 -4 -4 -4 0 0 10 7 21 14 21 39 4z m185 -8 c0 -14 -28
-30 -35 -19 -3 6 -11 8 -16 5 -5 -3 -7 0 -4 7 5 13 55 19 55 7z m-150 -39 c0
-5 -4 -10 -9 -10 -6 0 -13 5 -16 10 -3 6 1 10 9 10 9 0 16 -4 16 -10z m55 -1
c10 -14 1 -21 -19 -13 -9 3 -13 10 -10 15 7 12 21 11 29 -2z"/>
<path d="M4238 2632 c-16 -9 -28 -20 -28 -24 0 -12 13 -9 34 7 27 20 38 19 69
-8 31 -26 32 -30 11 -51 -8 -9 -11 -16 -5 -16 12 0 38 25 51 50 11 21 1 32
-49 49 -44 14 -51 14 -83 -7z"/>
<path d="M2012 2608 c-7 -7 -21 -13 -32 -13 -11 0 -20 -4 -21 -10 -1 -18 -33
-46 -46 -41 -7 3 -13 1 -13 -4 0 -6 -6 -9 -12 -7 -7 1 -14 -8 -16 -20 -5 -31
64 -104 77 -83 8 12 13 11 31 -5 11 -10 18 -25 15 -33 -4 -10 0 -12 11 -8 9 3
27 9 40 12 26 7 32 20 12 27 -7 2 -1 2 15 0 15 -3 27 0 27 6 0 6 -6 11 -12 12
-15 1 31 17 52 18 11 0 10 -4 -5 -16 -19 -15 -18 -15 15 -9 50 9 54 19 20 45
-35 25 -67 34 -75 20 -9 -14 -25 -11 -25 5 0 16 27 29 41 20 5 -3 9 2 9 10 0
9 -4 16 -10 16 -5 0 -10 6 -10 14 0 14 -34 30 -59 26 -9 -1 -12 4 -8 14 8 19
-4 21 -21 4z m-30 -40 c-7 -7 -12 -8 -12 -2 0 14 12 26 19 19 2 -3 -1 -11 -7
-17z m70 0 c-7 -7 -12 -8 -12 -2 0 14 12 26 19 19 2 -3 -1 -11 -7 -17z m-32 2
c0 -5 -4 -10 -10 -10 -5 0 -10 5 -10 10 0 6 5 10 10 10 6 0 10 -4 10 -10z m70
-14 c0 -3 -4 -8 -10 -11 -5 -3 -10 -1 -10 4 0 6 5 11 10 11 6 0 10 -2 10 -4z
m-104 -42 c-18 -18 -26 -18 -26 0 0 15 20 26 33 19 4 -2 1 -11 -7 -19z m68 17
c3 -5 -1 -12 -10 -15 -27 -11 -37 -7 -24 9 14 17 26 19 34 6z m-106 -20 c1 -1
-3 -7 -10 -15 -10 -10 -17 -11 -30 -2 -10 6 -18 14 -18 18 0 5 34 4 58 -1z
m72 -41 c0 -13 -28 -25 -38 -16 -3 4 0 11 8 16 20 13 30 12 30 0z m45 0 c-3
-5 -10 -10 -16 -10 -5 0 -9 5 -9 10 0 6 7 10 16 10 8 0 12 -4 9 -10z"/>
<path d="M2675 2445 c-20 -64 -38 -124 -41 -133 -3 -9 1 -5 10 9 17 29 78 230
72 236 -2 3 -21 -48 -41 -112z"/>
<path d="M4190 2552 c0 -20 -47 -43 -90 -45 -23 -2 -45 -9 -50 -17 -8 -12 -10
-10 -10 10 0 22 -1 23 -16 8 -9 -9 -22 -41 -29 -73 l-13 -56 53 4 c53 4 87 22
113 62 24 38 54 107 48 112 -3 4 -6 1 -6 -5z"/>
<path d="M5225 2516 c2 -33 -3 -50 -16 -62 -10 -9 -16 -20 -14 -24 3 -5 -4 -6
-15 -3 -16 4 -20 0 -20 -21 0 -31 -37 -69 -94 -97 -35 -17 -43 -17 -96 -5 -32
8 -63 16 -68 20 -8 5 -16 -7 -46 -74 -13 -29 -42 -60 -56 -60 -5 0 -10 -7 -10
-15 0 -8 -16 -22 -35 -31 -19 -9 -35 -20 -35 -26 0 -9 -77 -4 -87 6 -3 2 -17
-6 -31 -20 -15 -13 -39 -24 -54 -24 -15 0 -30 -4 -33 -10 -9 -15 -25 -12 -25
5 0 8 -6 15 -14 15 -9 0 -15 -20 -19 -67 -3 -38 -2 -71 1 -75 4 -3 24 -1 45 7
32 11 36 11 26 -1 -17 -21 -9 -24 48 -17 41 4 52 10 57 27 8 29 -5 37 -42 27
-18 -5 -32 -6 -32 -2 0 12 45 51 59 51 8 0 10 7 6 20 -11 35 5 43 34 16 l26
-25 194 29 c107 17 205 30 218 30 33 0 38 -23 13 -57 -11 -16 -22 -42 -23 -58
-2 -28 1 -30 43 -37 82 -12 128 -16 95 -9 l-30 7 33 8 c21 5 38 4 46 -3 8 -7
36 -14 64 -18 41 -4 57 -1 91 18 45 25 54 57 26 93 -13 17 -13 22 0 42 12 19
13 28 3 49 -9 19 -8 31 2 53 33 70 33 133 0 112 -10 -7 -11 -10 -2 -10 13 0
11 -48 -3 -82 -12 -29 -25 -20 -14 9 14 37 2 148 -21 191 -10 21 -19 31 -20
25 0 -8 -14 -13 -32 -13 l-33 -1 33 -14 c26 -11 32 -19 31 -42 -1 -15 1 -37 5
-48 4 -11 0 -6 -9 10 -18 33 -86 68 -113 58 -15 -6 -15 -5 -3 10 12 15 11 17
-11 17 -13 0 -30 -6 -38 -12 -8 -7 -4 -1 9 15 16 18 20 27 11 27 -27 0 5 19
45 28 l40 8 -45 24 c-25 12 -50 29 -56 37 -8 11 -10 4 -9 -31z m-47 -143 c-10
-12 -9 -18 7 -29 10 -8 16 -16 13 -19 -2 -3 -13 4 -22 14 -18 20 -14 67 5 55
6 -3 5 -12 -3 -21z m77 -72 c9 -42 -17 -96 -57 -117 -32 -16 -33 -16 -16 2 19
22 36 164 18 164 -5 0 -10 5 -10 11 0 22 59 -32 65 -60z m83 39 c50 -27 72
-45 72 -60 0 -9 -6 -8 -22 4 -45 32 -100 57 -114 52 -7 -3 -16 0 -20 6 -4 7
-3 8 4 4 7 -4 12 -2 12 3 0 17 27 13 68 -9z m-7 -31 c23 -11 39 -22 36 -25 -2
-2 -24 7 -48 21 -53 30 -44 33 12 4z m76 -55 c-3 -3 -12 -4 -19 -1 -8 3 -5 6
6 6 11 1 17 -2 13 -5z m29 -99 c-3 -8 -1 -15 4 -15 6 0 10 -5 10 -11 0 -5 -4
-7 -10 -4 -5 3 -7 0 -4 -8 3 -8 -1 -17 -9 -20 -10 -4 -13 2 -10 21 6 38 11 52
19 52 3 0 4 -7 0 -15z m-222 -110 c3 -11 -3 -2 -14 20 -11 22 -19 51 -19 65 0
17 4 11 13 -20 7 -25 16 -54 20 -65z m-47 73 c-3 -8 -6 -5 -6 6 -1 11 2 17 5
13 3 -3 4 -12 1 -19z m10 -50 c-3 -8 -6 -5 -6 6 -1 11 2 17 5 13 3 -3 4 -12 1
-19z m271 -57 c-2 -13 -14 -31 -28 -39 -18 -11 -21 -12 -12 -2 6 8 12 25 13
40 l1 25 8 -25 8 -25 1 25 c0 14 -4 32 -9 40 -7 11 -10 11 -10 2 0 -7 -5 -10
-11 -6 -8 4 -7 9 2 15 19 12 41 -19 37 -50z m-59 45 c-10 -9 -69 -36 -69 -32
0 7 52 35 64 36 5 0 7 -2 5 -4z m-184 -47 c-4 -5 -12 -9 -18 -8 -9 0 -8 2 1 6
6 2 9 10 6 15 -4 7 -2 8 5 4 6 -4 9 -12 6 -17z m100 1 c-3 -5 -14 -10 -23 -9
-14 0 -13 2 3 9 27 11 27 11 20 0z"/>
<path d="M3658 2543 c7 -3 16 -2 19 1 4 3 -2 6 -13 5 -11 0 -14 -3 -6 -6z"/>
<path d="M560 2530 c0 -5 -12 -13 -26 -16 -22 -6 -24 -8 -10 -16 23 -13 56 0
56 23 0 10 -4 19 -10 19 -5 0 -10 -4 -10 -10z"/>
<path d="M3730 2531 c0 -5 6 -13 13 -19 10 -8 13 -6 13 9 0 10 -6 19 -13 19
-7 0 -13 -4 -13 -9z"/>
<path d="M586 2490 c-14 -29 -14 -30 10 -30 13 0 24 4 24 9 0 5 9 11 20 14 11
3 20 10 20 17 0 7 -8 9 -20 5 -11 -4 -20 -2 -20 4 0 21 -19 10 -34 -19z"/>
<path d="M4350 2491 c-25 -15 -45 -33 -45 -39 0 -15 63 -82 77 -82 6 0 -1 12
-16 26 -14 15 -26 32 -26 38 0 15 50 56 70 56 29 0 84 -22 106 -42 17 -15 23
-16 32 -5 9 11 2 18 -36 34 -42 18 -113 44 -116 42 -1 0 -21 -13 -46 -28z"/>
<path d="M3565 2486 c-11 -7 -44 -28 -73 -46 -46 -28 -51 -35 -36 -43 12 -7
19 -5 26 7 14 24 84 66 111 66 13 0 33 -9 45 -20 24 -22 20 -41 -17 -84 -15
-18 -15 -18 5 -8 21 11 64 73 64 92 0 11 -45 35 -80 43 -14 3 -34 0 -45 -7z"/>
<path d="M5340 2470 c0 -5 5 -10 11 -10 5 0 7 5 4 10 -3 6 -8 10 -11 10 -2 0
-4 -4 -4 -10z"/>
<path d="M4212 2420 c0 -14 2 -19 5 -12 2 6 2 18 0 25 -3 6 -5 1 -5 -13z"/>
<path d="M1418 2410 c-16 -9 -25 -20 -21 -23 11 -12 40 -7 53 8 20 25 -2 35
-32 15z"/>
<path d="M1470 2398 c0 -6 -9 -22 -21 -34 l-20 -22 28 8 c55 14 72 22 77 37 5
12 1 14 -19 9 -14 -4 -25 -2 -25 4 0 5 -4 10 -10 10 -5 0 -10 -5 -10 -12z"/>
<path d="M4534 2390 c-6 -6 -34 -13 -63 -17 -34 -4 -48 -9 -39 -14 27 -17 78
-9 106 16 15 14 22 25 16 25 -5 0 -15 -5 -20 -10z"/>
<path d="M3799 2348 c-2 -41 -2 -42 -8 -10 l-6 33 -47 -44 c-27 -24 -48 -47
-48 -50 0 -9 35 -9 44 0 12 12 64 21 134 22 50 1 52 2 40 21 -7 11 -17 20 -22
20 -5 0 -24 11 -42 25 -18 14 -35 25 -38 25 -3 0 -7 -19 -7 -42z"/>
<path d="M3450 2352 c0 -5 11 -17 25 -26 21 -14 32 -15 65 -6 60 16 58 29 -5
23 -37 -4 -60 -2 -70 7 -8 7 -15 8 -15 2z"/>
<path d="M4214 2326 c1 -29 3 -31 34 -28 40 5 40 12 -2 38 l-32 21 0 -31z"/>
<path d="M4160 2289 c0 -5 5 -7 10 -4 6 3 10 8 10 11 0 2 -4 4 -10 4 -5 0 -10
-5 -10 -11z"/>
<path d="M1623 2275 c-17 -19 -16 -25 2 -25 8 0 15 -4 15 -10 0 -11 -6 -12
-38 -4 -18 5 -20 9 -11 20 9 11 8 14 -5 14 -9 0 -16 -6 -16 -14 0 -18 -27 -39
-51 -41 -34 -3 -43 -20 -30 -53 16 -39 62 -82 68 -64 7 18 20 15 44 -9 17 -17
19 -23 8 -30 -19 -12 -8 -11 32 2 38 13 78 48 57 50 -15 1 30 17 52 18 11 0
10 -3 -4 -14 -17 -13 -17 -15 -4 -15 26 0 68 18 68 30 0 5 -5 10 -10 10 -6 0
-24 10 -41 22 -25 19 -33 20 -49 10 -13 -8 -21 -8 -26 -1 -8 13 -3 18 22 22
27 4 24 22 -3 22 -13 -1 -23 3 -23 7 0 4 7 8 15 8 8 0 15 5 15 10 0 14 -33 13
-48 -2 -9 -9 -12 -9 -12 0 0 6 7 15 16 20 11 6 13 11 5 16 -6 4 -11 2 -11 -4
0 -6 -5 -8 -10 -5 -6 4 -8 11 -5 16 9 14 -9 10 -22 -6z m47 -75 c0 -10 -31
-23 -38 -15 -8 7 19 35 29 29 5 -3 9 -9 9 -14z m-60 0 c0 -13 -28 -25 -38 -16
-3 4 0 11 8 16 20 13 30 12 30 0z m-50 -20 c0 -5 -5 -12 -10 -15 -12 -8 -52 4
-46 13 6 10 56 11 56 2z m74 -39 c3 -5 -1 -12 -10 -15 -20 -8 -29 -1 -19 13 8
13 22 14 29 2z m41 -1 c-3 -5 -10 -10 -16 -10 -5 0 -9 5 -9 10 0 6 7 10 16 10
8 0 12 -4 9 -10z m2 -46 c-3 -3 -12 -4 -19 -1 -8 3 -5 6 6 6 11 1 17 -2 13 -5z"/>
<path d="M2299 2263 c-1 -15 -1 -36 0 -45 3 -23 -17 -58 -32 -58 -7 -1 -23
-14 -37 -30 -13 -17 -32 -30 -41 -30 -9 0 -19 -7 -23 -15 -3 -8 -17 -15 -31
-15 -14 0 -34 -9 -46 -21 -12 -12 -29 -19 -40 -16 -10 3 -37 1 -60 -4 -29 -7
-45 -6 -55 2 -15 12 -14 17 -18 -112 -2 -57 -17 -89 -42 -89 -8 0 -14 -5 -14
-11 0 -15 -42 -48 -61 -49 -9 0 -19 -7 -23 -15 -3 -8 -15 -15 -26 -15 -11 0
-33 -8 -48 -17 l-26 -18 79 -5 c44 -3 82 -4 84 -3 10 7 -8 13 -60 22 -30 5
-45 9 -33 10 11 0 25 6 31 12 13 13 120 -6 143 -26 13 -12 15 -3 16 71 2 64 6
91 20 111 11 14 24 35 31 47 14 24 37 34 80 35 17 1 34 5 37 10 8 12 55 20 61
10 3 -4 1 -10 -5 -14 -19 -12 -11 -54 13 -65 20 -10 20 -10 5 3 -10 8 -18 16
-18 19 0 2 36 29 80 59 44 29 80 57 80 61 0 5 6 8 13 8 15 0 71 58 80 82 7 21
-5 30 -57 43 -43 11 -59 32 -27 37 19 3 19 4 -5 31 l-24 28 -1 -28z m-331
-320 c-5 -26 -38 -29 -38 -4 0 15 6 21 21 21 14 0 19 -5 17 -17z m-44 -108
c-4 -8 -11 -15 -16 -15 -6 0 -5 6 2 15 7 8 14 15 16 15 2 0 1 -7 -2 -15z"/>
<path d="M4120 2280 c-9 -6 -10 -10 -3 -10 6 0 15 5 18 10 8 12 4 12 -15 0z"/>
<path d="M3635 2240 c-10 -11 -13 -20 -7 -20 7 0 12 5 12 10 0 6 10 15 23 20
14 6 16 9 6 9 -9 1 -24 -8 -34 -19z"/>
<path d="M3746 2219 c-25 -16 -46 -34 -46 -41 0 -21 69 -78 93 -78 13 0 28 -5
34 -11 6 -6 19 -9 29 -7 14 3 1 13 -41 34 -65 32 -78 53 -49 86 15 16 26 19
59 13 72 -11 111 -78 69 -119 -23 -24 5 -20 35 5 20 17 22 23 13 43 -6 15 -7
27 -1 33 6 6 0 14 -16 21 -115 54 -126 55 -179 21z"/>
<path d="M4161 2229 c-65 -38 -67 -44 -22 -89 25 -26 48 -40 65 -40 13 0 27
-4 30 -9 3 -5 23 -9 43 -9 29 0 46 7 71 31 35 34 40 47 16 47 -9 0 -14 5 -12
12 5 15 -28 49 -45 47 -7 -1 -23 2 -37 8 -51 21 -75 21 -109 2z m138 -44 c32
-31 22 -51 -28 -58 -53 -7 -91 4 -108 30 -13 19 -12 23 9 43 19 18 30 20 63
15 22 -3 51 -16 64 -30z"/>
<path d="M4035 2230 c-3 -5 -1 -10 4 -10 6 0 11 5 11 10 0 6 -2 10 -4 10 -3 0
-8 -4 -11 -10z"/>
<path d="M3602 2160 c0 -19 2 -27 5 -17 2 9 2 25 0 35 -3 9 -5 1 -5 -18z"/>
<path d="M2758 2163 c6 -2 18 -2 25 0 6 3 1 5 -13 5 -14 0 -19 -2 -12 -5z"/>
<path d="M3085 2160 c-17 -7 -16 -9 10 -9 17 0 37 4 45 9 12 8 10 10 -10 9
-14 0 -34 -4 -45 -9z"/>
<path d="M5535 2134 c-33 -6 -50 -12 -37 -13 13 -1 20 -5 17 -11 -7 -11 31
-13 87 -4 21 4 35 10 32 15 -12 21 -43 25 -99 13z"/>
<path d="M3596 2093 c-3 -4 -6 -17 -6 -31 0 -20 -2 -22 -15 -12 -17 14 -35 5
-35 -17 0 -13 -3 -13 -15 -3 -8 7 -25 10 -37 7 -11 -3 -36 0 -55 8 -36 15 -38
14 -22 -18 31 -61 120 -111 184 -104 15 1 21 -5 23 -24 3 -25 6 -26 36 -19 19
4 39 10 45 14 14 9 15 53 1 61 -5 3 -10 11 -10 16 0 10 47 2 65 -11 11 -8 95
-21 95 -14 0 2 -20 9 -44 15 -24 6 -58 24 -75 40 -18 16 -35 29 -38 29 -3 0
-25 16 -48 35 -23 19 -45 31 -49 28z"/>
<path d="M2581 2074 c0 -11 3 -14 6 -6 3 7 2 16 -1 19 -3 4 -6 -2 -5 -13z"/>
<path d="M4023 1960 c2 -66 6 -123 10 -126 4 -4 7 -17 7 -30 0 -12 3 -29 6
-38 11 -29 24 -17 24 22 1 20 8 48 16 62 9 15 12 17 8 5 -5 -11 -8 -46 -9 -79
0 -57 1 -59 35 -77 48 -26 137 -25 199 2 49 20 100 77 115 127 9 27 -1 28 -34
2 -14 -11 -36 -20 -50 -20 -15 0 -31 -5 -38 -12 -9 -9 -12 -8 -12 5 0 15 -17
22 -42 18 -5 0 -8 4 -8 10 0 8 -5 8 -15 -1 -12 -10 -15 -9 -15 6 0 11 -14 46
-30 78 -17 32 -30 65 -30 72 0 8 -7 14 -15 14 -9 0 -18 7 -21 15 -4 8 -10 15
-16 15 -5 0 -24 11 -42 25 -18 14 -36 25 -40 25 -4 0 -5 -54 -3 -120z"/>
<path d="M5530 2051 c-19 -5 -25 -14 -25 -34 -1 -25 2 -27 36 -27 40 0 63 19
57 47 -4 20 -29 25 -68 14z"/>
<path d="M4858 2033 c6 -2 18 -2 25 0 6 3 1 5 -13 5 -14 0 -19 -2 -12 -5z"/>
<path d="M4785 2023 c-16 -3 -34 -9 -40 -14 -10 -10 45 -2 80 12 21 8 9 9 -40
2z"/>
<path d="M2546 1958 c-8 -32 -8 -35 9 -35 8 0 11 5 7 11 -3 6 -5 19 -4 29 5
25 -5 21 -12 -5z"/>
<path d="M38 1913 c7 -3 16 -2 19 1 4 3 -2 6 -13 5 -11 0 -14 -3 -6 -6z"/>
<path d="M3263 1910 c-34 -14 -28 -21 7 -9 17 6 30 13 30 15 0 6 -12 4 -37 -6z"/>
<path d="M3870 1913 c0 -5 12 -20 28 -34 l27 -24 -25 30 c-14 17 -26 32 -27
34 -2 2 -3 0 -3 -6z"/>
<path d="M80 1901 c8 -5 69 -18 135 -30 66 -13 248 -47 403 -77 156 -31 286
-54 288 -51 4 4 -811 167 -831 167 -5 0 -3 -4 5 -9z"/>
<path d="M4563 1885 c-17 -7 -33 -12 -35 -10 -1 2 -9 -3 -16 -11 -8 -9 -9 -14
-2 -14 18 0 77 27 84 39 9 13 8 13 -31 -4z"/>
<path d="M3926 1777 c5 -64 3 -83 -12 -105 -19 -30 -69 -80 -100 -100 -16 -10
-15 -11 6 -1 50 24 92 63 115 109 13 25 31 53 41 61 17 14 44 69 44 89 0 6
-12 4 -30 -5 -38 -20 -45 -19 -59 8 -9 18 -10 7 -5 -56z"/>
<path d="M2275 1810 c4 -19 11 -39 16 -44 4 -5 3 8 -2 30 -14 50 -24 60 -14
14z"/>
<path d="M2466 1825 c-9 -26 -7 -32 5 -12 6 10 9 21 6 23 -2 3 -7 -2 -11 -11z"/>
<path d="M3589 1823 c-13 -16 -12 -17 4 -4 16 13 21 21 13 21 -2 0 -10 -8 -17
-17z"/>
<path d="M2226 1785 c-41 -33 -103 -48 -145 -35 -42 12 -55 5 -17 -10 59 -22
148 -1 186 45 21 25 8 25 -24 0z"/>
<path d="M3577 1793 c-4 -3 -7 -11 -7 -17 0 -6 5 -5 12 2 6 6 9 14 7 17 -3 3
-9 2 -12 -2z"/>
<path d="M3647 1729 c27 -28 108 -37 147 -17 25 13 23 14 -38 10 -47 -3 -74 0
-98 12 l-33 17 22 -22z"/>
<path d="M928 1733 c6 -2 18 -2 25 0 6 3 1 5 -13 5 -14 0 -19 -2 -12 -5z"/>
<path d="M2282 1697 c-18 -70 -76 -107 -169 -107 -46 0 -76 14 -133 64 -35 31
-35 31 -10 2 61 -70 144 -95 231 -70 58 17 103 68 101 115 -1 46 -8 45 -20 -4z"/>
<path d="M978 1723 c6 -2 18 -2 25 0 6 3 1 5 -13 5 -14 0 -19 -2 -12 -5z"/>
<path d="M1990 1710 c40 -31 94 -45 132 -33 32 11 31 11 -22 12 -36 1 -66 8
-88 21 -42 26 -54 25 -22 0z"/>
<path d="M1028 1713 c6 -2 18 -2 25 0 6 3 1 5 -13 5 -14 0 -19 -2 -12 -5z"/>
<path d="M190 1700 c8 -5 20 -10 25 -10 6 0 3 5 -5 10 -8 5 -19 10 -25 10 -5
0 -3 -5 5 -10z"/>
<path d="M385 1696 c-3 -9 -7 -23 -10 -31 -2 -8 0 -17 5 -20 5 -3 10 5 12 17
3 25 23 27 116 13 36 -5 42 -10 42 -31 0 -17 8 -27 24 -34 21 -8 25 -17 29
-57 l3 -48 2 49 c2 38 5 47 17 42 8 -3 15 -1 15 3 0 5 -17 13 -37 18 -31 7
-39 14 -41 35 -3 28 -7 30 -97 44 -22 3 -48 8 -58 11 -10 2 -19 -2 -22 -11z"/>
<path d="M1083 1703 c9 -2 23 -2 30 0 6 3 -1 5 -18 5 -16 0 -22 -2 -12 -5z"/>
<path d="M3856 1688 c-18 -13 -51 -24 -90 -28 -59 -6 -60 -7 -24 -14 46 -10
97 6 128 39 29 30 24 31 -14 3z"/>
<path d="M1138 1693 c6 -2 18 -2 25 0 6 3 1 5 -13 5 -14 0 -19 -2 -12 -5z"/>
<path d="M1230 1675 c30 -8 73 -16 95 -19 31 -4 27 -2 -15 9 -30 8 -73 16 -95
19 -31 4 -27 2 15 -9z"/>
<path d="M1378 1643 c6 -2 18 -2 25 0 6 3 1 5 -13 5 -14 0 -19 -2 -12 -5z"/>
<path d="M1428 1633 c6 -2 18 -2 25 0 6 3 1 5 -13 5 -14 0 -19 -2 -12 -5z"/>
<path d="M1495 1620 c17 -4 41 -8 55 -8 22 0 22 1 -5 8 -16 4 -41 8 -55 8 -22
0 -22 -1 5 -8z"/>
<path d="M2396 1615 c-9 -26 -7 -32 5 -12 6 10 9 21 6 23 -2 3 -7 -2 -11 -11z"/>
<path d="M1581 1606 c4 -4 747 -156 762 -156 11 0 37 -57 38 -82 l0 -23 9 23
c14 33 -27 97 -65 100 -14 1 -185 33 -378 72 -343 68 -375 74 -366 66z"/>
<path d="M5245 1551 c0 -16 3 -27 8 -24 4 2 7 15 7 29 0 13 -3 24 -7 24 -5 0
-8 -13 -8 -29z"/>
<path d="M1065 1510 c17 -4 156 -33 310 -64 154 -31 291 -60 305 -64 34 -11
50 -5 50 20 0 14 5 18 18 14 9 -2 44 -10 77 -16 33 -7 66 -17 74 -24 11 -9 13
-8 9 4 -5 15 -63 34 -143 46 -37 5 -43 3 -48 -15 -4 -17 -11 -21 -29 -16 -74
17 -625 125 -638 124 -8 0 -1 -4 15 -9z"/>
<path d="M5251 1494 c0 -11 3 -14 6 -6 3 7 2 16 -1 19 -3 4 -6 -2 -5 -13z"/>
<path d="M1702 1330 c0 -19 2 -27 5 -17 2 9 2 25 0 35 -3 9 -5 1 -5 -18z"/>
<path d="M1920 1336 c6 -6 10 -37 11 -70 l0 -61 24 65 c14 36 25 66 25 66 0 1
-16 4 -35 6 -23 3 -32 1 -25 -6z m39 -13 c0 -5 -4 -17 -9 -28 -8 -18 -9 -17
-9 8 -1 15 4 27 9 27 6 0 10 -3 9 -7z"/>
<path d="M2359 1323 c-13 -16 -12 -17 4 -4 9 7 17 15 17 17 0 8 -8 3 -21 -13z"/>
<path d="M3922 1287 c-1 -16 -6 -26 -11 -23 -4 3 -3 -16 3 -42 l11 -47 3 38
c2 20 1 52 -1 70 -4 30 -4 30 -5 4z"/>
</g>
</svg>
