<?xml version="1.0" standalone="no"?>
<!DOCTYPE svg PUBLIC "-//W3C//DTD SVG 20010904//EN"
 "http://www.w3.org/TR/2001/REC-SVG-20010904/DTD/svg10.dtd">
<svg version="1.0" xmlns="http://www.w3.org/2000/svg"
 width="1096.000000pt" height="1096.000000pt" viewBox="0 0 1096.000000 1096.000000"
 preserveAspectRatio="xMidYMid meet">

<g transform="translate(0.000000,1096.000000) scale(0.100000,-0.100000)"
fill="#000000" stroke="none">
<path d="M7526 10495 c-63 -22 -36 20 -361 -570 -48 -88 -116 -212 -151 -275
-35 -63 -175 -318 -311 -566 -136 -248 -255 -461 -263 -473 l-15 -22 -115 18
c-98 15 -178 18 -555 18 -565 0 -810 -20 -1383 -115 -547 -91 -870 -214 -1199
-459 -163 -121 -570 -486 -686 -616 -185 -207 -543 -713 -711 -1005 -97 -169
-128 -272 -251 -825 -41 -184 -46 -220 -42 -290 5 -82 23 -149 37 -140 4 2 10
38 14 80 41 451 235 1018 473 1385 64 97 174 242 180 236 2 -2 -17 -50 -43
-107 -78 -173 -200 -494 -253 -668 -70 -228 -100 -370 -111 -529 -5 -75 -14
-204 -20 -287 -6 -82 -26 -251 -45 -375 -19 -124 -39 -272 -46 -329 -14 -128
-7 -339 16 -441 46 -205 160 -518 280 -765 29 -60 50 -113 47 -117 -7 -6 -241
-161 -862 -568 -683 -448 -702 -461 -696 -477 3 -8 9 -26 12 -39 3 -13 10 -24
16 -24 5 0 366 214 803 475 436 261 799 477 806 480 9 3 31 -24 64 -77 94
-156 263 -404 398 -583 163 -217 166 -220 245 -280 34 -26 62 -53 62 -58 0 -9
-65 -130 -250 -467 -26 -47 -110 -200 -187 -340 -77 -140 -178 -322 -223 -405
-45 -82 -121 -220 -168 -305 -46 -85 -111 -204 -144 -263 l-61 -108 33 -34 33
-34 80 132 c44 73 150 249 237 392 328 542 531 877 661 1092 74 123 139 222
146 220 6 -1 113 -83 238 -182 125 -99 266 -204 313 -233 369 -226 839 -381
1367 -453 219 -30 615 -38 718 -15 121 27 297 103 487 211 66 37 89 45 190 59
139 20 445 94 567 137 200 70 398 180 513 284 25 23 77 65 117 93 86 64 135
116 160 174 24 53 35 62 103 85 46 15 58 24 78 61 23 41 24 42 77 42 30 0 57
5 61 11 3 6 12 61 19 121 11 89 17 114 35 132 l21 21 17 -21 c9 -12 25 -36 34
-53 20 -36 31 -38 75 -11 69 42 75 107 12 142 -24 14 -29 23 -29 55 0 21 9 57
20 81 21 46 131 209 213 314 240 308 419 811 477 1338 14 135 40 494 40 566 0
40 10 89 30 148 40 121 88 291 95 347 4 28 2 55 -4 67 -10 18 -18 20 -65 15
-66 -7 -69 -2 -73 95 -3 83 -20 187 -35 215 -7 13 -18 17 -41 15 l-32 -3 2
-105 c1 -58 9 -157 18 -220 31 -231 37 -335 31 -535 -10 -345 -50 -636 -116
-845 -50 -159 -65 -164 -26 -8 38 146 57 336 63 618 4 218 2 282 -16 440 -24
220 -38 373 -51 570 -9 152 -23 206 -75 310 -35 71 -96 161 -155 230 -25 30
-92 119 -148 197 -56 77 -122 163 -146 190 l-44 49 38 22 c22 12 43 22 48 22
5 0 42 -40 81 -89 77 -97 167 -184 185 -178 21 7 17 56 -8 106 -15 28 -56 89
-92 137 -36 47 -62 89 -57 93 11 10 69 45 1158 696 523 312 982 588 1022 612
69 42 72 47 79 90 17 116 -19 215 -111 302 -82 78 -198 124 -256 102 -14 -5
-295 -186 -624 -403 -330 -217 -719 -472 -865 -568 -146 -95 -370 -243 -499
-327 l-233 -154 -137 133 c-338 331 -605 506 -1003 659 -100 38 -184 71 -186
73 -3 4 17 46 36 74 7 10 30 4 108 -31 54 -25 139 -59 188 -76 176 -62 283
-120 647 -347 261 -163 284 -174 359 -174 58 0 60 1 60 26 0 90 -586 541
-1025 790 -66 37 -130 73 -142 81 -25 14 -74 -71 577 1003 443 732 490 811
490 828 0 28 -45 116 -80 156 -79 90 -273 141 -384 101z m-1266 -2208 c0 -7
-6 -22 -14 -33 -14 -19 -16 -18 -86 6 -40 14 -74 28 -77 32 -2 5 37 8 86 8 68
0 91 -3 91 -13z m-600 -442 c161 -23 320 -58 320 -70 -1 -15 -95 -178 -103
-176 -4 1 -35 15 -70 32 -103 48 -196 62 -417 62 -170 0 -365 -12 -452 -29
-26 -5 -27 -4 -22 25 6 29 5 31 -23 31 -108 0 -674 -223 -883 -348 -307 -184
-652 -447 -766 -584 -314 -379 -552 -768 -702 -1149 -98 -248 -140 -435 -172
-766 -6 -62 -14 -123 -19 -135 -7 -20 -8 -20 -14 8 -19 97 -29 265 -24 409 10
259 48 442 149 710 33 88 74 187 91 220 102 203 353 533 571 750 102 101 137
127 414 308 493 322 733 471 818 507 206 89 549 177 834 214 66 8 365 -3 470
-19z m1020 -66 c91 -36 223 -94 525 -229 287 -128 598 -287 657 -337 31 -26
59 -53 62 -60 5 -11 -46 -46 -804 -543 -195 -128 -425 -279 -510 -335 -204
-134 -755 -496 -1155 -758 -176 -116 -358 -236 -405 -267 -111 -73 -114 -75
-108 -64 3 5 135 223 293 484 159 261 345 570 415 685 70 116 225 372 345 570
120 198 265 438 323 533 91 150 108 173 126 169 12 -3 66 -21 122 -41 120 -41
264 -70 310 -61 33 6 34 6 18 31 -26 39 -149 115 -271 168 l-112 48 15 30 c17
34 12 34 154 -23z m-840 -267 c0 -4 -4 -12 -9 -17 -5 -6 -74 -129 -153 -275
-138 -251 -715 -1303 -780 -1420 -39 -69 -152 -274 -328 -595 -75 -137 -159
-289 -185 -338 -40 -72 -57 -93 -99 -119 -28 -18 -319 -208 -646 -423 -735
-483 -790 -518 -794 -514 -30 33 -128 307 -155 431 -69 322 -41 728 84 1203
66 253 99 316 319 614 52 70 110 156 129 193 155 297 443 607 712 767 203 121
713 327 927 375 196 44 457 79 868 115 52 5 98 9 103 10 4 0 7 -3 7 -7z m2312
-879 c24 -34 101 -137 171 -230 171 -225 194 -273 208 -426 8 -93 18 -140 44
-214 19 -52 35 -104 35 -115 0 -10 -16 -34 -35 -53 -44 -45 -51 -83 -35 -209
22 -184 12 -451 -26 -706 -21 -138 -69 -373 -99 -481 -74 -264 -219 -572 -399
-847 -92 -142 -341 -476 -503 -675 -129 -159 -341 -375 -403 -410 -33 -19 -92
-34 -215 -57 -235 -43 -339 -72 -442 -123 -177 -89 -480 -182 -675 -207 -93
-12 -260 0 -203 14 149 38 697 198 813 237 185 63 353 143 457 218 44 32 139
98 210 146 448 306 704 542 861 793 70 110 290 557 338 682 65 174 140 464
172 670 22 141 22 296 1 317 -8 8 -19 13 -25 9 -5 -3 -12 -79 -15 -168 -11
-340 -114 -705 -326 -1151 -174 -368 -509 -748 -945 -1072 -314 -233 -763
-450 -1076 -518 -136 -30 -159 -33 -400 -52 -401 -32 -524 -14 -1014 145 -261
86 -428 165 -642 309 -202 135 -464 344 -464 369 0 6 71 128 158 271 86 143
326 538 532 880 l375 620 640 384 c352 211 1068 639 1590 952 523 313 1022
612 1110 666 88 53 165 96 172 96 7 -1 32 -30 55 -64z m-4125 -2415 c-122
-222 -206 -375 -252 -458 -29 -52 -132 -241 -230 -420 -98 -179 -184 -331
-190 -338 -10 -11 -23 0 -72 65 -140 184 -355 537 -337 552 5 4 178 108 384
231 206 123 452 270 545 326 94 57 174 103 178 104 4 0 -7 -28 -26 -62z"/>
<path d="M3005 8612 c-43 -27 -88 -81 -126 -153 -36 -66 -85 -110 -147 -130
-20 -6 -41 -15 -47 -20 -16 -15 25 -46 99 -76 44 -18 72 -35 76 -48 11 -31
-10 -83 -88 -213 -90 -152 -112 -196 -112 -227 0 -39 35 -32 115 22 80 53 290
261 319 315 19 36 19 37 -1 99 -12 35 -18 70 -14 77 4 8 25 23 46 35 47 27 80
70 71 92 -5 14 -20 15 -126 9 -66 -4 -120 -3 -120 1 0 4 20 31 43 59 69 80 83
121 55 159 -12 16 -15 16 -43 -1z"/>
<path d="M3259 8354 c-30 -36 -8 -114 31 -114 26 0 44 27 44 65 0 38 -18 65
-44 65 -10 0 -24 -7 -31 -16z"/>
<path d="M2570 7970 c-25 -25 -25 -42 -2 -63 46 -42 142 -23 142 28 0 51 -99
76 -140 35z"/>
</g>
</svg>
